<?xml version="1.0" encoding="utf-8"?>
<!-- Generator: Adobe Illustrator 23.0.1, SVG Export Plug-In . SVG Version: 6.00 Build 0)  -->
<svg version="1.1" id="Layer_1" xmlns="http://www.w3.org/2000/svg" xmlns:xlink="http://www.w3.org/1999/xlink" x="0px" y="0px"
	 viewBox="0 0 66.9 65.6" style="enable-background:new 0 0 66.9 65.6;" xml:space="preserve">
<style type="text/css">
	.st0{fill:#354242;}
</style>
<g>
	<g>
		<path class="st0" d="M10.2,32c1.4-1,2.7-2,4-3c3.5-2.6,7.6-2.4,10.8,0.6c3.7,3.4,7.5,6.8,11.2,10.2c0.2,0.2,0.3,0.3,0.6,0.5
			c1.1-1.3,2.3-2.5,3.4-3.8c3.2-3.6,7.8-4,11.6-1c2.1,1.6,4.1,3.3,6.4,5.1c0-0.4,0-0.6,0-0.8c0-5.5,0-10.9,0-16.4
			c0-1.2,0.8-2,1.9-2.2c1-0.1,2,0.5,2.3,1.6c0.1,0.2,0.1,0.5,0.1,0.7c0,8.3,0,16.7,0,25c0,6.6-5.4,12.5-11.9,13.3
			c-0.7,0.1-1.4,0.1-2.2,0.1c-9.5,0-19,0-28.5,0c-7,0-12.5-4.5-13.9-11.4c-0.1-0.7-0.2-1.4-0.2-2.1c0-9.9,0-19.8,0-29.7
			c0-6.7,5.3-12.6,11.9-13.4c0.4-0.1,0.9-0.1,1.3-0.1c6,0,12,0,18,0c1.1,0,2,0.8,2.2,1.8c0.2,1.1-0.4,2.1-1.5,2.4
			c-0.3,0.1-0.6,0.1-0.9,0.1c-5.7,0-11.4,0-17,0c-4.2,0-7.8,2.6-9.1,6.5c-0.3,0.9-0.5,1.9-0.5,2.8c-0.1,4.2,0,8.5,0,12.7
			C10.1,31.7,10.1,31.8,10.2,32z M33.8,43.6c-0.1-0.1-0.1-0.2-0.2-0.2c-4-3.6-8-7.3-12-10.9c-1.3-1.2-3.1-1.2-4.5-0.2
			c-2.2,1.6-4.4,3.3-6.6,4.9c-0.2,0.1-0.3,0.4-0.3,0.7c0,3.4-0.1,6.9,0,10.3c0.1,3.2,1.5,5.7,4.1,7.6c2,1.4,4.2,1.7,6.6,1.6
			c0.4,0,0.7-0.1,1-0.5c2-2.3,4-4.5,6.1-6.8C29.9,48,31.8,45.8,33.8,43.6z M27.4,57.4c7.3,0,14.5,0.1,21.6,0c2.8,0,5.1-1.3,6.9-3.4
			c1.8-2.1,2.3-4.6,2.2-7.2c0-0.4-0.1-0.7-0.5-1c-2.9-2.3-5.8-4.7-8.7-7c-0.5-0.4-1-0.7-1.6-0.9c-1.6-0.5-2.9,0.2-3.9,1.4
			c-4,4.5-8,9-12,13.5C30.1,54.3,28.8,55.8,27.4,57.4z"/>
		<path class="st0" d="M51.4,14.2c1.4-1.6,2.7-3.2,4.1-4.8c1-1.1,1.9-2.3,2.9-3.4c0.9-1.1,2.2-1.2,3.2-0.4c1,0.8,1.1,2.2,0.1,3.3
			c-2.8,3.3-5.7,6.6-8.5,9.9c-1,1.1-2.3,1.2-3.4,0.1c-1.9-1.9-3.8-3.7-5.6-5.6c-1-1-1-2.3-0.1-3.2c0.9-0.9,2.2-0.9,3.2,0.1
			c1.2,1.2,2.4,2.4,3.6,3.6C51.1,13.9,51.2,14,51.4,14.2z"/>
		<path class="st0" d="M22.5,17.5c0-2.4,2-4.4,4.4-4.4c2.4,0,4.4,2,4.4,4.4c0,2.4-2,4.4-4.4,4.4C24.4,21.9,22.5,19.9,22.5,17.5z"/>
	</g>
</g>
</svg>
