<svg id="Layer_1" data-name="Layer 1" xmlns="http://www.w3.org/2000/svg" viewBox="0 0 72.03 55.88"><defs><style>.cls-1{fill:#354242;}</style></defs><title>Free Shipping</title><path class="cls-1" d="M49.54,61h3.54a1.62,1.62,0,0,1,1.73,1.56,1.57,1.57,0,0,1-1.66,1.71c-2.43,0-4.87,0-7.3,0a1.58,1.58,0,0,1-1.7-1.68A1.62,1.62,0,0,1,45.93,61Z" transform="translate(-11.27 -8.42)"/><path class="cls-1" d="M15.8,61h2a1.67,1.67,0,0,1,1.73,1.59,1.65,1.65,0,0,1-1.63,1.68c-1.41,0-2.82,0-4.22,0a1.55,1.55,0,0,1-1.55-1.72A1.61,1.61,0,0,1,13.8,61Z" transform="translate(-11.27 -8.42)"/><path class="cls-1" d="M40.21,52.72h9c.28-2.48.55-4.93.82-7.37q.66-5.88,1.31-11.76.57-5.21,1.16-10.39c.34-3,.65-6.07,1-9.09.2-1.62-.41-2.39-2-2.39H18.33a4,4,0,0,1-.92-.05A1.7,1.7,0,0,1,16.2,10a1.67,1.67,0,0,1,1.41-1.5,6.06,6.06,0,0,1,.85-.05h33c2.71,0,4.67,1.3,5.21,3.64a10.12,10.12,0,0,1,0,3.11c-.18,2-.44,4.08-.67,6.12a1,1,0,0,0,0,.28H65a7.79,7.79,0,0,1,6,2.57q5.24,5.74,10.36,11.59a8.12,8.12,0,0,1,1.87,6.59c-.36,3.08-.67,6.17-1,9.25A4.77,4.77,0,0,1,77.34,56a2.9,2.9,0,0,0-3.21,1.85A11.12,11.12,0,0,1,63,64.21,8.15,8.15,0,0,1,55.58,57c0-.28-.07-.56-.11-.89-.25,0-.46,0-.69,0-4.79,0-9.59,0-14.39,0-.57,0-.78.19-1,.7A11.77,11.77,0,0,1,27.9,64.23a8.22,8.22,0,0,1-7.7-7.64c0-.15,0-.3-.05-.53H13.07a1.68,1.68,0,0,1-1.8-1.6A1.66,1.66,0,0,1,13,52.78c2.26,0,4.51,0,6.77,0A1.13,1.13,0,0,0,21,52C23,47.63,26.26,45,31.05,44.58s8.56,2.85,9.11,7.7C40.18,52.41,40.19,52.54,40.21,52.72Zm35.29.05H77c1.38,0,1.92-.56,2-1.94.28-2.78.56-5.56.88-8.33a5.7,5.7,0,0,0-1.16-4.77q-5-5.61-10.06-11.23a4.17,4.17,0,0,0-3-1.55c-3.18-.06-6.36-.06-9.54-.05a.73.73,0,0,0-.51.47c-.44,3.77-.85,7.54-1.27,11.31-.43,4-.88,7.94-1.32,11.92-.15,1.36-.28,2.72-.44,4.17,1.1,0,2.07,0,3,0a.85.85,0,0,0,.56-.48,11.86,11.86,0,0,1,6.27-6.66c3.19-1.47,6.41-1.57,9.44.43A8.09,8.09,0,0,1,75.5,52.77Zm-8.56-4.89a8.43,8.43,0,0,0-8,6.89A5.07,5.07,0,0,0,64.43,61,8.65,8.65,0,0,0,71.9,54.9C73,51.05,70.75,47.88,66.94,47.88ZM23.52,55.77A5,5,0,0,0,29.28,61a8.56,8.56,0,0,0,7.46-6.74A5,5,0,0,0,32.84,48C28.48,47,23.57,51.13,23.52,55.77Z" transform="translate(-11.27 -8.42)"/><path class="cls-1" d="M25.22,41.28H14.84c-1.17,0-1.9-.63-1.9-1.64A1.63,1.63,0,0,1,14.76,38q10.48,0,21,0a1.63,1.63,0,0,1,1.82,1.65c0,1-.73,1.64-1.9,1.64Z" transform="translate(-11.27 -8.42)"/><path class="cls-1" d="M36.73,21.57H31.19a1.63,1.63,0,0,1-1.83-1.63,1.61,1.61,0,0,1,1.73-1.65c3.76,0,7.53,0,11.3,0a1.65,1.65,0,1,1-.06,3.28Z" transform="translate(-11.27 -8.42)"/><path class="cls-1" d="M23.58,31.42H18.05A1.68,1.68,0,0,1,16.2,29.8,1.67,1.67,0,0,1,18,28.14c3.76,0,7.53,0,11.29,0a1.65,1.65,0,1,1,0,3.28Z" transform="translate(-11.27 -8.42)"/><path class="cls-1" d="M22.77,21.57c-.57,0-1.13,0-1.69,0A1.6,1.6,0,0,1,19.51,20,1.53,1.53,0,0,1,21,18.32c1.2-.06,2.41-.06,3.61,0A1.54,1.54,0,0,1,26.06,20a1.59,1.59,0,0,1-1.6,1.54Z" transform="translate(-11.27 -8.42)"/><path class="cls-1" d="M37.6,31.42c-.59,0-1.18,0-1.77,0a1.59,1.59,0,0,1-1.53-1.53,1.52,1.52,0,0,1,1.4-1.7,31.45,31.45,0,0,1,3.76,0,1.51,1.51,0,0,1,1.38,1.71,1.58,1.58,0,0,1-1.55,1.51C38.73,31.44,38.17,31.42,37.6,31.42Z" transform="translate(-11.27 -8.42)"/><path class="cls-1" d="M66.73,41.28H60a1.71,1.71,0,0,1-1.86-2.06q.39-4.45.74-8.89c.13-1.7.64-2.2,2.36-2.2,1,0,2.1,0,3.16,0a2.13,2.13,0,0,1,1.75.77q4.32,4.74,8.68,9.47a1.69,1.69,0,0,1,.41,2,1.65,1.65,0,0,1-1.7.95C71.24,41.26,69,41.28,66.73,41.28Zm3.14-3.34-.72-.84c-1.46-1.58-3-3.11-4.33-4.78a2.59,2.59,0,0,0-2.73-.84c-.18,2.16-.35,4.29-.53,6.46Z" transform="translate(-11.27 -8.42)"/></svg>