<svg id="Layer_1" data-name="Layer 1" xmlns="http://www.w3.org/2000/svg" viewBox="0 0 56.69 56.66"><defs><style>.cls-1{fill:#354242;}</style></defs><title>Free Price Quote</title><path class="cls-1" d="M8,13.21V9.89c0-.1.08-.2.1-.3a5.51,5.51,0,0,1,5.55-4.45H50.23a5.93,5.93,0,0,1,.94.05,5.56,5.56,0,0,1,4.64,5.57q0,14.21,0,28.43v.66l.57.15a11.09,11.09,0,0,1,8.25,11.77c-.54,4.76-3.23,7.85-7.68,9.45a21.21,21.21,0,0,1-2.35.58H52.28a1.65,1.65,0,0,0-.36-.11,10,10,0,0,1-4.47-1.78,1.82,1.82,0,0,0-1.13-.34H22.7a6.7,6.7,0,0,1-1.1,0,5.51,5.51,0,0,1-4.74-5.7V14H16.2c-2.25,0-4.5,0-6.75,0A1.4,1.4,0,0,1,8,13.21ZM42.52,50.73A11.15,11.15,0,0,1,53.59,39.64c0-.15,0-.26,0-.37q0-14.25,0-28.49a3.33,3.33,0,0,0-3.54-3.43H18.52c-.15,0-.3,0-.51,0a6.34,6.34,0,0,1,1.07,3.88q0,21.11,0,42.21c0,.2,0,.41,0,.61a3.24,3.24,0,0,0,3.2,3.24,3.17,3.17,0,0,0,3.36-2.84,17.16,17.16,0,0,0,.08-2.38c0-1,.36-1.38,1.4-1.38h15.4Zm11.06,8.85a8.84,8.84,0,0,0,8.86-8.74,8.84,8.84,0,1,0-17.67-.06A8.84,8.84,0,0,0,53.58,59.58ZM26.86,57.32H44.51c-.63-1.43-1.28-2.88-1.93-4.34H27.9A6.1,6.1,0,0,1,26.86,57.32ZM10.25,11.74h6.58c.15-1.57-.11-3-1.52-3.85a3.11,3.11,0,0,0-3.49,0C10.37,8.74,10.1,10.14,10.25,11.74Z" transform="translate(-8.01 -5.14)"/><path class="cls-1" d="M30.14,19v2.65a1.1,1.1,0,0,1-1.21,1.19H23.57a1.07,1.07,0,0,1-1.17-1.16c0-1.81,0-3.61,0-5.41a1.08,1.08,0,0,1,1.17-1.17h5.36a1.1,1.1,0,0,1,1.21,1.19Zm-5.49-1.68v3.27h3.24V17.32Z" transform="translate(-8.01 -5.14)"/><path class="cls-1" d="M22.4,30c0-.89,0-1.77,0-2.66a1.08,1.08,0,0,1,1.2-1.18c1.79,0,3.58,0,5.36,0a1.08,1.08,0,0,1,1.18,1.16v5.41A1.08,1.08,0,0,1,29,33.9H23.6a1.08,1.08,0,0,1-1.2-1.19C22.39,31.81,22.4,30.91,22.4,30Zm2.25-1.61v3.27H27.9V28.4Z" transform="translate(-8.01 -5.14)"/><path class="cls-1" d="M30.14,41.13v2.6A1.11,1.11,0,0,1,28.93,45h-5.3a1.1,1.1,0,0,1-1.23-1.23v-5.3a1.09,1.09,0,0,1,1.24-1.21h5.25a1.1,1.1,0,0,1,1.25,1.25Zm-2.26,1.62V39.48H24.65v3.27Z" transform="translate(-8.01 -5.14)"/><path class="cls-1" d="M41.84,17.86H34.77c-.83,0-1.3-.39-1.31-1.09s.46-1.12,1.28-1.12H49c.82,0,1.28.42,1.28,1.12s-.47,1.09-1.31,1.09Z" transform="translate(-8.01 -5.14)"/><path class="cls-1" d="M39.94,22.29H34.75c-.82,0-1.29-.41-1.28-1.12s.47-1.09,1.3-1.09H45.1c.84,0,1.29.39,1.3,1.08s-.45,1.13-1.32,1.13Z" transform="translate(-8.01 -5.14)"/><path class="cls-1" d="M39.94,40H34.75c-.82,0-1.29-.41-1.28-1.11s.47-1.1,1.3-1.1H45.1c.84,0,1.29.39,1.31,1.09S46,40,45.08,40Z" transform="translate(-8.01 -5.14)"/><path class="cls-1" d="M44.43,26.72H49c.82,0,1.28.41,1.27,1.12s-.47,1.08-1.25,1.08H39.69c-.78,0-1.24-.41-1.24-1.09a1.08,1.08,0,0,1,1.23-1.11Z" transform="translate(-8.01 -5.14)"/><path class="cls-1" d="M37.72,33.35h-3a1.11,1.11,0,1,1,0-2.21h6.07a1.11,1.11,0,1,1,0,2.21Z" transform="translate(-8.01 -5.14)"/><path class="cls-1" d="M37.73,44.42h-3a1.07,1.07,0,0,1-1.22-1.11c0-.68.46-1.09,1.24-1.09h6a1.11,1.11,0,0,1,1.26,1.08c0,.68-.48,1.12-1.28,1.12Z" transform="translate(-8.01 -5.14)"/><path class="cls-1" d="M34.62,26.72a1.1,1.1,0,1,1-1.15,1.07A1.07,1.07,0,0,1,34.62,26.72Z" transform="translate(-8.01 -5.14)"/><path class="cls-1" d="M53.6,43.54a1,1,0,0,1,1.09,1.06c0,.55.2.73.66.87s.93.39,1,1a1.1,1.1,0,0,1-1.44,1.26c-.23-.06-.44-.19-.66-.26a1.11,1.11,0,0,0-1.43.61,1.09,1.09,0,0,0,.64,1.41c.46.22,1,.38,1.41.62a3.29,3.29,0,0,1,.28,5.69.85.85,0,0,0-.46.88,1.09,1.09,0,0,1-.8,1.23,1.07,1.07,0,0,1-1.39-1.11c0-.43-.13-.65-.53-.74a2.41,2.41,0,0,1-.5-.21,1.11,1.11,0,0,1-.6-1.43,1.13,1.13,0,0,1,1.42-.63c.21.06.41.17.62.24a1.12,1.12,0,0,0,1.44-.57,1.09,1.09,0,0,0-.6-1.42c-.39-.18-.78-.33-1.17-.5a3.21,3.21,0,0,1-2.05-2.85,3.09,3.09,0,0,1,1.62-3c.42-.25.33-.56.34-.89A1.06,1.06,0,0,1,53.6,43.54Z" transform="translate(-8.01 -5.14)"/></svg>