<svg id="Layer_1" data-name="Layer 1" xmlns="http://www.w3.org/2000/svg" viewBox="0 0 73.94 65"><defs><style>.cls-1{fill:#354242;stroke:#354242;stroke-miterlimit:10;stroke-width:0.5px;}</style></defs><title>Printing</title><path class="cls-1" d="M7.29,12.16h6.58V6.75H54.75V8.84H16.08V21.77H72V8.87H57V6.76H74.15V12.1H80.7v6.49H74.16V24H67.75v4.24h6.37v5.41h6.59v6.48H74.19v5.35H67.73V71.23H61.29V69.16H65.5V24.06h-43V69.12h32.2v2.11H20.36V45.53H13.92V40.15H7.28V33.69H13.9V28.24h6.4V24H13.86V18.62H7.28Q7.3,15.38,7.29,12.16Zm13,31.13V30.49H16.09v12.8ZM67.74,30.48V43.26H72V30.48ZM9.5,14.31v2.08h4.33V14.31Zm69.08,0H74.19v2.05h4.39ZM13.83,38V35.89H9.48V38ZM74.2,35.86V38h4.35V35.86Z" transform="translate(-7.03 -6.5)"/><path class="cls-1" d="M44.08,52.73a6.65,6.65,0,0,1-4,1.35A6.16,6.16,0,0,1,36.57,53a.67.67,0,0,0-.88,0,6.35,6.35,0,0,1-9.81-4.12,5.58,5.58,0,0,1,1.26-5.1c1.61-1.73,3.41-3.28,5.2-5l2.36,2.38,1.87,1.88a6.36,6.36,0,0,1,1.25,7.58c-.06.13-.12.25-.17.37,2.09,1.87,5.73.65,6.51-2.15a3.88,3.88,0,0,0-.75-3.78c-1-1.15-2.22-2.17-3.37-3.27l-1,.93-1.42-1.48,2.51-2.47L44,42.68l4-4.06,4,4,4.11-4.13c.42.52.73,1,1.11,1.36,1.12,1.14,2.29,2.24,3.38,3.41a6.15,6.15,0,0,1,1.5,6.43A6.37,6.37,0,0,1,52.48,53a.62.62,0,0,0-.82,0,6.29,6.29,0,0,1-7.32-.09Zm-12-10.91c-1,1-2,1.94-3,3a4.21,4.21,0,0,0,5.86,6,4.13,4.13,0,0,0,.43-5.8C34.39,43.89,33.21,42.9,32.08,41.82Zm16-.08c-.71.72-1.42,1.46-2.16,2.16a.59.59,0,0,0-.11.86A5.21,5.21,0,0,1,46.46,48c-.14,1-.46,2.06-.72,3.18l.15.12a4.24,4.24,0,0,0,5.39-.87,4.17,4.17,0,0,0-.09-5.56C50.22,43.8,49.14,42.81,48.05,41.74ZM53.55,51a4.09,4.09,0,0,0,5.19-.1,4,4,0,0,0,.9-5.35,41,41,0,0,0-3.47-3.8l-2.61,2.58A6.49,6.49,0,0,1,53.55,51Z" transform="translate(-7.03 -6.5)"/><path class="cls-1" d="M18.22,13.1v-2h2.09v2Z" transform="translate(-7.03 -6.5)"/><path class="cls-1" d="M22.53,13.1v-2h2.08v2Z" transform="translate(-7.03 -6.5)"/><path class="cls-1" d="M57,71.25V69.19H59v2.06Z" transform="translate(-7.03 -6.5)"/><path class="cls-1" d="M32.2,46.55c0,.63,0,1.22,0,1.81,0,.12-.18.32-.28.32a15.14,15.14,0,0,1-1.65,0c-.09,0-.18-.17-.25-.28s0-.14,0-.21C29.89,46.4,30,46.32,32.2,46.55Z" transform="translate(-7.03 -6.5)"/></svg>