<svg id="Layer_1" data-name="Layer 1" xmlns="http://www.w3.org/2000/svg" viewBox="0 0 73.54 76"><defs><style>.cls-1{fill:#354242;}</style></defs><title>Quality Assurance</title><path class="cls-1" d="M36.83,8.68a3.72,3.72,0,0,1,4-3.68H62.33a3.72,3.72,0,0,1,4,3.68H73.7a6.07,6.07,0,0,1,6.06,6q0,30.15,0,60.28a6.05,6.05,0,0,1-6,6Q51.58,81,29.4,81a6.06,6.06,0,0,1-6-6q0-9.92,0-19.84V54.07c-.23.38-.36.57-.48.77-1.45,2.66-2.91,5.32-4.35,8-.31.56-.65,1.05-1.39,1s-1-.59-1.24-1.18c-.63-1.59-1.26-3.16-1.91-4.78-2,.32-4,.62-6,1a1.44,1.44,0,0,1-1.59-.44,1.42,1.42,0,0,1,.12-1.7q3-5,6.08-10.1l.55-.92c-4.43-4.94-5.82-10.57-3.47-16.8s7.08-9.52,13.65-10.43c0-1.19,0-2.39,0-3.58a6.09,6.09,0,0,1,6.2-6.21ZM66.32,16a3.71,3.71,0,0,1-4,3.67H40.82a4.71,4.71,0,0,1-1.13-.1A3.73,3.73,0,0,1,36.82,16c-1.63,0-3.23,0-4.84,0a1.21,1.21,0,0,0-1.23,1.29c0,.52,0,1,0,1.54s.18.91.75,1.19a16,16,0,0,1,5.33,24.69l-.79.92.44.76,6.23,10.36a1.34,1.34,0,0,1,.1,1.57,1.38,1.38,0,0,1-1.56.49c-2-.34-4-.66-6-1-.69,1.71-1.35,3.37-2,5-.33.8-.95,1.15-1.62.89a5.65,5.65,0,0,1-.83-.55v8.54c0,1.53.35,1.88,1.89,1.88H70.47c1.63,0,2-.32,2-2V18c0-.23,0-.46,0-.69A1.25,1.25,0,0,0,71.12,16C69.54,16,68,16,66.32,16Zm0-4.9v2.45H71a3.63,3.63,0,0,1,3.82,3.85V72.21A3.64,3.64,0,0,1,71,76.09H32.15a3.64,3.64,0,0,1-3.86-3.89c0-4-.12-8,.05-12,.11-2.46-1.54-4-2.32-6l-.19,0v20c0,2.84,1.44,4.27,4.29,4.28H72.94c3,0,4.38-1.41,4.38-4.35V15.45c0-.23,0-.46,0-.69a3.67,3.67,0,0,0-3.63-3.62C71.26,11.09,68.84,11.13,66.33,11.13ZM51.69,7.45H41c-1.19,0-1.63.43-1.64,1.6v6.58c0,1.18.44,1.62,1.62,1.63h21.3c1.16,0,1.6-.45,1.6-1.64V9.1c0-1.23-.43-1.65-1.66-1.65Zm-40.56,27a13.49,13.49,0,0,0,27,.05,13.59,13.59,0,0,0-13.41-13.6A13.65,13.65,0,0,0,11.13,34.48Zm6.3,25.22c1.77-3.23,3.45-6.32,5.11-9.36-1.35-.4-2.65-.68-3.87-1.16S16.31,48,15.1,47.38L9.9,56c1.48-.24,2.83-.44,4.18-.68s1.6,0,2.06,1.12S17,58.53,17.43,59.7ZM39.33,56c-1.78-3-3.51-5.83-5.25-8.73a16,16,0,0,1-7.44,3l5.15,9.45c.49-1.2.91-2.26,1.33-3.31s.84-1.26,2-1.06ZM25.85,18.49l2.44.39V17.46a3.65,3.65,0,0,1,3.86-3.88h4.68V11.15c-2.59,0-5.13-.09-7.67,0a3.51,3.51,0,0,0-3.3,3.42C25.79,15.87,25.85,17.14,25.85,18.49Z" transform="translate(-6.22 -5)"/><path class="cls-1" d="M54.07,29.46V27.11H69.93v2.35Z" transform="translate(-6.22 -5)"/><path class="cls-1" d="M69.93,30.8v2.35H54.1V30.8Z" transform="translate(-6.22 -5)"/><path class="cls-1" d="M54.07,41.72V39.37H69.93v2.35Z" transform="translate(-6.22 -5)"/><path class="cls-1" d="M54.07,45.4V43H69.9V45.4Z" transform="translate(-6.22 -5)"/><path class="cls-1" d="M69.93,51.64V54H54.07V51.64Z" transform="translate(-6.22 -5)"/><path class="cls-1" d="M54.08,55.29H69.91v2.37H54.08Z" transform="translate(-6.22 -5)"/><path class="cls-1" d="M69.91,66.25H54.07V63.9H69.91Z" transform="translate(-6.22 -5)"/><path class="cls-1" d="M69.93,67.58v2.34H54.08V67.58Z" transform="translate(-6.22 -5)"/><path class="cls-1" d="M43.28,30.3l1.87-1.57L46.28,30l3.13-3.73,1.9,1.57L49.6,29.89c-.77.92-1.52,1.86-2.31,2.76a1.22,1.22,0,0,1-2.07,0C44.57,31.88,44,31.11,43.28,30.3Z" transform="translate(-6.22 -5)"/><path class="cls-1" d="M49.41,38.53l1.9,1.58c-1.41,1.69-2.78,3.36-4.2,5a1.16,1.16,0,0,1-1.86-.17c-.66-.75-1.28-1.53-2-2.37L45.16,41l1.12,1.28Z" transform="translate(-6.22 -5)"/><path class="cls-1" d="M43.27,54.82l1.88-1.57,1.14,1.27,3.12-3.74,1.89,1.57-1,1.29c-1,1.15-1.92,2.32-2.9,3.46a1.25,1.25,0,0,1-2.18,0C44.55,56.37,43.94,55.62,43.27,54.82Z" transform="translate(-6.22 -5)"/><path class="cls-1" d="M49.41,63l1.89,1.58-1,1.28c-1,1.16-1.92,2.33-2.9,3.46a1.25,1.25,0,0,1-2.18,0l-1.89-2.28,1.87-1.57,1.14,1.27Z" transform="translate(-6.22 -5)"/><path class="cls-1" d="M36.87,34.46a12.26,12.26,0,1,1-12.14-12.3A12.23,12.23,0,0,1,36.87,34.46ZM24.61,44.23a9.81,9.81,0,1,0-9.8-9.8A9.89,9.89,0,0,0,24.61,44.23Z" transform="translate(-6.22 -5)"/><path class="cls-1" d="M31.57,30.4c-.15.16-.29.33-.45.49l-7.79,7.79c-1,1-1.82.87-2.45-.38l-2.27-4.55c.73-.38,1.43-.72,2.2-1.11.57,1.13,1.12,2.21,1.71,3.36l7.33-7.35Z" transform="translate(-6.22 -5)"/></svg>